<svg aria-hidden="true" style="width:0;height:0;position:absolute;overflow:hidden" xmlns="http://www.w3.org/2000/svg"><defs><symbol id="icon-comments" viewBox="0 0 32 32"><path d="M16 6c-1.717 0-3.375.271-4.928.804-1.46.502-2.76 1.211-3.863 2.108C5.14 10.593 4 12.755 4 15c0 1.259.35 2.481 1.039 3.63.711 1.185 1.781 2.268 3.093 3.133a3.996 3.996 0 0 1 1.755 2.747c.056.375.091.753.105 1.129.233-.194.461-.401.684-.624a4 4 0 0 1 3.333-1.14c.655.083 1.325.126 1.99.126 1.717 0 3.375-.271 4.928-.804 1.46-.502 2.76-1.211 3.863-2.108 2.069-1.681 3.209-3.843 3.209-6.088s-1.14-4.407-3.209-6.088c-1.104-.897-2.404-1.606-3.863-2.108a15.118 15.118 0 0 0-4.928-.804zm0-4c8.837 0 16 5.82 16 13s-7.163 13-16 13a19.66 19.66 0 0 1-2.495-.158C10.068 31.279 5.966 31.895 2 31.986v-.841C4.142 30.096 6 28.184 6 26c0-.305-.024-.604-.068-.897C2.313 22.72 0 19.079 0 15 0 7.82 7.163 2 16 2z"/></symbol><symbol id="icon-search" viewBox="0 0 32 32"><path d="m31.008 27.231-7.58-6.447c-.784-.705-1.622-1.029-2.299-.998a11.954 11.954 0 0 0 2.87-7.787c0-6.627-5.373-12-12-12s-12 5.373-12 12 5.373 12 12 12c2.972 0 5.691-1.081 7.787-2.87-.031.677.293 1.515.998 2.299l6.447 7.58c1.104 1.226 2.907 1.33 4.007.23s.997-2.903-.23-4.007zM12 20a8 8 0 1 1 0-16 8 8 0 0 1 0 16z"/></symbol><symbol id="icon-views" viewBox="0 0 32 32"><path d="M16 6C9.021 6 2.972 10.064 0 16c2.972 5.936 9.021 10 16 10s13.027-4.064 16-10c-2.972-5.936-9.021-10-16-10zm7.889 5.303A15.212 15.212 0 0 1 28.559 16a15.223 15.223 0 0 1-4.67 4.697C21.527 22.204 18.799 23 16 23s-5.527-.796-7.889-2.303A15.212 15.212 0 0 1 3.441 16a15.223 15.223 0 0 1 5.041-4.925 8 8 0 1 0 15.036 0c.124.074.248.15.371.228zM16 13a3 3 0 1 1-6 0 3 3 0 0 1 6 0z"/></symbol><symbol id="icon-likes" viewBox="0 0 32 32"><path d="m32 12.408-11.056-1.607L16 .783l-4.944 10.018L0 12.408l8 7.798-1.889 11.011L16 26.018l9.889 5.199L24 20.206l8-7.798zM16 23.547l-6.983 3.671 1.334-7.776-5.65-5.507 7.808-1.134 3.492-7.075 3.492 7.075 7.807 1.134-5.65 5.507 1.334 7.776-6.983-3.671z"/></symbol><symbol id="icon-downloads" viewBox="0 0 32 32"><path d="m27.414 19.414-10 10a2 2 0 0 1-2.828 0l-10-10a2 2 0 1 1 2.828-2.828L14 23.172V4a2 2 0 1 1 4 0v19.172l6.586-6.586c.39-.39.902-.586 1.414-.586s1.024.195 1.414.586a2 2 0 0 1 0 2.828z"/></symbol></defs></svg>